<svg width="102" height="60" viewBox="0 0 102 60" fill="none" xmlns="http://www.w3.org/2000/svg">
<rect x="1" y="1" width="99.4511" height="57.4405" stroke="#05102D" stroke-width="2"/>
<path d="M7.7038 18.3844C12.8882 17.9098 17.016 13.7821 17.4905 8.59766H83.9606C84.4351 13.7821 88.5629 17.9098 93.7473 18.3844V41.5031C88.5629 41.9776 84.4351 46.1054 83.9606 51.2898H17.4905C17.016 46.1054 12.8882 41.9776 7.7038 41.5031V18.3844Z" stroke="#05102D" stroke-width="2"/>
<path d="M48.2378 19.4678V17.5228H50.1828V19.4964C53.2719 19.8683 56.361 21.5272 56.504 25.0168H54.2444C54.1014 22.9002 52.0992 21.8991 50.1828 21.6703V28.678C53.7867 29.2214 57.1047 30.0509 57.1047 34.1984C57.1047 37.9167 53.5007 39.7473 50.1828 40.062V42.0356H48.2378V40.062C44.8626 39.7473 41.4302 38.0025 41.2872 34.3128H43.6041C43.7471 36.6296 46.0639 37.6879 48.2378 37.9167V30.4514C44.834 29.9937 41.6877 28.964 41.6877 25.217C41.6877 21.5558 44.9484 19.7825 48.2378 19.4678ZM54.702 34.1984C54.702 31.6813 52.5854 31.0806 50.1828 30.6802V37.9167C52.3566 37.6879 54.702 36.5724 54.702 34.1984ZM44.0617 25.1884C44.0617 27.5625 46.2641 28.1059 48.2378 28.4206V21.6131C46.2641 21.8419 44.0617 22.9288 44.0617 25.1884Z" fill="#05102D"/>
<path d="M66.0382 29.7203C66.0382 41.5955 58.2937 50.8429 49.1613 50.8429C40.029 50.8429 32.2845 41.5955 32.2845 29.7203C32.2845 17.845 40.029 8.59766 49.1613 8.59766C58.2937 8.59766 66.0382 17.845 66.0382 29.7203Z" stroke="#05102D" stroke-width="2"/>
</svg>
