<svg width="103" height="52" viewBox="0 0 103 52" fill="none" xmlns="http://www.w3.org/2000/svg">
<g clip-path="url(#clip0_27_227)">
<path d="M29.0793 41.4445H27.4761C27.0338 41.4445 26.6468 41.5556 26.3704 41.8334C26.094 42.1111 25.9281 42.5001 25.9281 43V49.3889C25.9281 50.2223 26.094 50.8889 26.481 51.2779C26.8679 51.7223 27.5314 51.9445 28.4712 51.9445H30.5167V45.9445H28.1395V47.4445H29.0241V50.5H28.4159C28.0289 50.5 27.6972 50.4445 27.5867 50.2778C27.4208 50.1111 27.3655 49.8334 27.3655 49.3889V43.0556C27.3655 43 27.4208 42.9445 27.5314 42.9445H28.8582C28.9688 42.9445 29.0241 43 29.0241 43.0556V45.1112H30.5167V43C30.5167 42.5001 30.4062 42.1111 30.1297 41.8334C29.9086 41.5556 29.5217 41.4445 29.0793 41.4445Z" fill="#05102D"/>
<path d="M36.4327 41.4445L34.9401 52H36.3775L36.7644 49.3889H38.2572L38.6441 52H40.0815L38.5889 41.4445H36.4327ZM36.9856 47.8334L37.1514 46.1667L37.5385 42.6111L37.9255 46.1667L38.0913 47.8334H36.9856Z" fill="#05102D"/>
<path d="M49.4798 41.4445L48.4846 47L48.0424 50.6667L47.6001 47L46.605 41.4445H44.8358L44.3383 51.9445H45.831L45.9968 44.7223L47.1578 51.9445H48.8717L50.0326 44.7223L50.2538 51.9445H51.7464L51.1936 41.4445H49.4798Z" fill="#05102D"/>
<path d="M58.1048 41.4445H56.6121V52H58.1048V41.4445Z" fill="#05102D"/>
<path d="M66.121 46.2222L66.2316 47.9445L65.955 46.6667L64.4068 41.4445H63.0248V51.9445H64.4621V47.1667L64.3515 45.2778L64.6834 46.7223L66.1763 51.9445H67.5579V41.4445H66.121V46.2222Z" fill="#05102D"/>
<path d="M75.6307 41.4445H74.0272C73.5853 41.4445 73.1981 41.5556 72.9215 41.8334C72.6449 42.1111 72.4796 42.5001 72.4796 43V49.3889C72.4796 50.2223 72.6449 50.8889 73.0321 51.2779C73.4193 51.7223 74.0825 51.9445 75.0222 51.9445H77.0682V45.9445H74.6909V47.4445H75.5753V50.5H74.9669C74.5803 50.5 74.3037 50.4445 74.1378 50.2778C73.9718 50.1111 73.9165 49.8334 73.9165 49.3889V43.0556C73.9165 43 73.9718 42.9445 74.0825 42.9445H75.4094C75.52 42.9445 75.5753 43 75.5753 43.0556V45.1112H77.0682V43C77.0682 42.5001 76.9576 42.1111 76.681 41.8334C76.4597 41.5556 76.0725 41.4445 75.6307 41.4445Z" fill="#05102D"/>
<path d="M101.945 0H69.4379H67.2819H35.7694H33.6132H1.1057C0.497564 0 0 0.5 0 1.11111V34.8333C0 35.4444 0.497564 35.9445 1.1057 35.9445H33.6132H35.7694H67.2266H69.3826H101.89C102.498 35.9445 102.996 35.4444 102.996 34.8333V1.11111C103.051 0.5 102.554 0 101.945 0ZM33.6132 33.7778H2.15611V2.16667H33.6132V33.7778ZM67.2819 33.7778H35.7694V2.16667H67.2266V33.7778H67.2819ZM100.895 33.7778H69.4379V2.16667H100.895V33.7778Z" fill="#05102D"/>
<path d="M14.9278 28.3888H16.918V17.8333L9.28872 10.3333L7.90662 11.7222L14.9278 18.8333V28.3888Z" fill="#05102D"/>
<path d="M18.8528 28.3888H20.843V18.8333L27.8642 11.7222L26.4821 10.3333L18.8528 17.8333V28.3888Z" fill="#05102D"/>
<path d="M25.0442 8.94439L23.6621 7.55554L17.9125 13.3333L12.1076 7.55554L10.7255 8.94439L17.9125 16.0556L25.0442 8.94439Z" fill="#05102D"/>
<path d="M48.5958 28.3888H50.5308V17.8333L42.9014 10.3333L41.5746 11.7222L48.5958 18.8333V28.3888Z" fill="#05102D"/>
<path d="M52.52 28.3888H54.455V18.8333L61.4762 11.7222L60.094 10.3333L52.52 17.8333V28.3888Z" fill="#05102D"/>
<path d="M58.7123 8.94439L57.3302 7.55554L51.5253 13.3333L45.7204 7.55554L44.3383 8.94439L51.5253 16.0556L58.7123 8.94439Z" fill="#05102D"/>
<path d="M82.2087 28.3888H84.1434V17.8333L76.5697 10.3333L75.1875 11.7222L82.2087 18.8333V28.3888Z" fill="#05102D"/>
<path d="M86.134 28.3888H88.0688V18.8333L95.0899 11.7222L93.7637 10.3333L86.134 17.8333V28.3888Z" fill="#05102D"/>
<path d="M92.3268 8.94439L90.9452 7.55554L85.1397 13.3333L79.3348 7.55554L77.9532 8.94439L85.1397 16.0556L92.3268 8.94439Z" fill="#05102D"/>
</g>
<defs>
<clipPath id="clip0_27_227">
<rect width="103" height="52" fill="white"/>
</clipPath>
</defs>
</svg>
