<svg width="117" height="77" viewBox="0 0 117 77" fill="none" xmlns="http://www.w3.org/2000/svg">
<path d="M14.2744 9.5V1H115.726V60.4405H108.774" stroke="#05102D" stroke-width="2"/>
<path d="M7.27441 17.5V9H108.726V68.4405H101.774" stroke="#05102D" stroke-width="2"/>
<rect x="1.27441" y="18" width="99.4511" height="57.4405" stroke="#05102D" stroke-width="2"/>
<path d="M7.97824 35.3844C13.1627 34.9098 17.2904 30.7821 17.765 25.5977H84.235C84.7096 30.7821 88.8373 34.9098 94.0217 35.3844V58.5031C88.8373 58.9776 84.7096 63.1054 84.235 68.2898H17.765C17.2904 63.1054 13.1627 58.9776 7.97824 58.5031V35.3844Z" stroke="#05102D" stroke-width="2"/>
<path d="M48.5122 36.4678V34.5228H50.4572V36.4964C53.5463 36.8683 56.6354 38.5272 56.7785 42.0168H54.5188C54.3758 39.9002 52.3736 38.8991 50.4572 38.6703V45.678C54.0612 46.2214 57.3791 47.0509 57.3791 51.1984C57.3791 54.9167 53.7751 56.7473 50.4572 57.062V59.0356H48.5122V57.062C45.137 56.7473 41.7047 55.0025 41.5617 51.3128H43.8785C44.0215 53.6296 46.3384 54.6879 48.5122 54.9167V47.4514C45.1084 46.9937 41.9621 45.964 41.9621 42.217C41.9621 38.5558 45.2229 36.7825 48.5122 36.4678ZM54.9765 51.1984C54.9765 48.6813 52.8598 48.0806 50.4572 47.6802V54.9167C52.631 54.6879 54.9765 53.5724 54.9765 51.1984ZM44.3362 42.1884C44.3362 44.5625 46.5386 45.1059 48.5122 45.4206V38.6131C46.5386 38.8419 44.3362 39.9288 44.3362 42.1884Z" fill="#05102D"/>
<path d="M66.3126 46.7203C66.3126 58.5955 58.5681 67.8429 49.4358 67.8429C40.3034 67.8429 32.5589 58.5955 32.5589 46.7203C32.5589 34.845 40.3034 25.5977 49.4358 25.5977C58.5681 25.5977 66.3126 34.845 66.3126 46.7203Z" stroke="#05102D" stroke-width="2"/>
</svg>
