<svg width="237" height="118" viewBox="0 0 237 118" fill="none" xmlns="http://www.w3.org/2000/svg">
<g clip-path="url(#clip0_27_250)">
<path d="M66.9107 94.047H63.2217C62.204 94.047 61.3135 94.2992 60.6774 94.9295C60.0415 95.5599 59.6598 96.4424 59.6598 97.577V112.075C59.6598 113.966 60.0415 115.479 60.932 116.361C61.8223 117.37 63.3489 117.874 65.5115 117.874H70.2181V104.259H64.7481V107.662H66.7835V114.596H65.3842C64.4937 114.596 63.7305 114.47 63.4761 114.092C63.0945 113.714 62.9673 113.083 62.9673 112.075V97.7031C62.9673 97.577 63.0945 97.451 63.3489 97.451H66.4019C66.6563 97.451 66.7835 97.577 66.7835 97.7031V102.368H70.2181V97.577C70.2181 96.4424 69.9637 95.5599 69.3276 94.9295C68.8188 94.2992 67.9285 94.047 66.9107 94.047Z" fill="#FFC800"/>
<path d="M83.8306 94.047L80.396 118H83.7035L84.5938 112.075H88.0286L88.9189 118H92.2264L88.7918 94.047H83.8306ZM85.1028 108.545L85.4843 104.763L86.3748 96.6945L87.2653 104.763L87.6469 108.545H85.1028Z" fill="#FFC800"/>
<path d="M113.852 94.047L111.562 106.654L110.544 114.974L109.526 106.654L107.237 94.047H103.166L102.021 117.874H105.456L105.837 101.485L108.509 117.874H112.452L115.124 101.485L115.632 117.874H119.067L117.795 94.047H113.852Z" fill="#FFC800"/>
<path d="M133.698 94.047H130.263V118H133.698V94.047Z" fill="#FFC800"/>
<path d="M152.142 104.889L152.397 108.797L151.76 105.898L148.198 94.047H145.018V117.874H148.325V107.032L148.071 102.746L148.835 106.024L152.27 117.874H155.449V94.047H152.142V104.889Z" fill="#FFC800"/>
<path d="M174.024 94.047H170.334C169.318 94.047 168.427 94.2992 167.79 94.9295C167.154 95.5599 166.773 96.4424 166.773 97.577V112.075C166.773 113.966 167.154 115.479 168.045 116.361C168.936 117.37 170.462 117.874 172.624 117.874H177.332V104.259H171.862V107.662H173.897V114.596H172.497C171.607 114.596 170.971 114.47 170.589 114.092C170.207 113.714 170.08 113.083 170.08 112.075V97.7031C170.08 97.577 170.207 97.451 170.462 97.451H173.515C173.769 97.451 173.897 97.577 173.897 97.7031V102.368H177.332V97.577C177.332 96.4424 177.077 95.5599 176.441 94.9295C175.932 94.2992 175.041 94.047 174.024 94.047Z" fill="#FFC800"/>
<path d="M234.573 0H159.775H154.814H82.3042H77.343H2.54418C1.14488 0 0 1.13462 0 2.52137V79.0449C0 80.4316 1.14488 81.5663 2.54418 81.5663H77.343H82.3042H154.686H159.647H234.446C235.846 81.5663 236.99 80.4316 236.99 79.0449V2.52137C237.117 1.13462 235.973 0 234.573 0ZM77.343 76.6496H4.96116V4.91667H77.343V76.6496ZM154.814 76.6496H82.3042V4.91667H154.686V76.6496H154.814ZM232.156 76.6496H159.775V4.91667H232.156V76.6496Z" fill="#FFC800"/>
<path d="M34.3485 64.4209H38.928V40.4679L21.3732 23.4486L18.193 26.6004L34.3485 42.7371V64.4209Z" fill="#FFC800"/>
<path d="M43.3796 64.4209H47.9592V42.7371L64.1147 26.6004L60.9345 23.4486L43.3796 40.4679V64.4209Z" fill="#FFC800"/>
<path d="M57.6259 20.297L54.4457 17.1454L41.216 30.2565L27.859 17.1454L24.6788 20.297L41.216 36.4339L57.6259 20.297Z" fill="#FFC800"/>
<path d="M111.817 64.4209H116.27V40.4679L98.7148 23.4486L95.6619 26.6004L111.817 42.7371V64.4209Z" fill="#FFC800"/>
<path d="M120.847 64.4209H125.299V42.7371L141.455 26.6004L138.275 23.4486L120.847 40.4679V64.4209Z" fill="#FFC800"/>
<path d="M135.095 20.297L131.915 17.1454L118.558 30.2565L105.201 17.1454L102.021 20.297L118.558 36.4339L135.095 20.297Z" fill="#FFC800"/>
<path d="M189.16 64.4209H193.611V40.4679L176.185 23.4486L173.004 26.6004L189.16 42.7371V64.4209Z" fill="#FFC800"/>
<path d="M198.192 64.4209H202.644V42.7371L218.799 26.6004L215.748 23.4486L198.192 40.4679V64.4209Z" fill="#FFC800"/>
<path d="M212.441 20.297L209.262 17.1454L195.904 30.2565L182.547 17.1454L179.368 20.297L195.904 36.4339L212.441 20.297Z" fill="#FFC800"/>
</g>
<defs>
<clipPath id="clip0_27_250">
<rect width="237" height="118" fill="white"/>
</clipPath>
</defs>
</svg>
